<svg width="134" height="34" viewBox="0 0 134 34" fill="none" xmlns="http://www.w3.org/2000/svg">
<path d="M17.16 17.56H9.56L9.04 20.6H18.36L17.24 27H0.32L4.72 2H21.44L19.36 8.4H11.16L10.6 11.76H18.2L17.16 17.56ZM33.9709 0.399999L30.2909 21.28C31.0643 21.44 31.6643 21.5333 32.0909 21.56L30.7309 27.44C27.2109 27.44 24.9309 27.1867 23.8909 26.68C23.4376 26.44 23.0509 26.1067 22.7309 25.68C22.4109 25.2267 22.2509 24.8133 22.2509 24.44C22.2509 24.0667 22.2776 23.6667 22.3309 23.24L26.2509 0.999999L33.9709 0.399999ZM36.9147 24.92L35.8347 7H43.1947V20H43.5947L47.9947 7H55.5947L47.3147 27C46.2214 29.64 45.048 31.4 43.7947 32.28C42.568 33.16 40.928 33.6 38.8747 33.6H31.5147L32.3947 28.4L36.0747 27.68C38.768 27.1467 40.3814 26.3067 40.9147 25.16V24.92H36.9147ZM56.5759 15.2C56.5759 12.3467 57.4026 10.1733 59.0559 8.68C60.7359 7.16 63.2026 6.4 66.4559 6.4C69.7359 6.4 72.5093 6.81333 74.7759 7.64L72.9359 13.08C71.0959 12.4933 69.1759 12.2 67.1759 12.2C66.5359 12.2 65.6559 12.2533 64.5359 12.36L64.2959 13.64C67.7359 13.64 70.1626 14.0933 71.5759 15C72.9893 15.88 73.6959 17.16 73.6959 18.84C73.6959 24.68 70.3493 27.6 63.6559 27.6C59.6826 27.6 56.5226 27.2133 54.1759 26.44L56.0959 20.76C58.1493 21.4533 60.3893 21.8 62.8159 21.8C63.9893 21.8 65.0426 21.7467 65.9759 21.64L66.2159 20.36C62.6959 20.36 60.2026 19.9467 58.7359 19.12C57.2959 18.2667 56.5759 16.96 56.5759 15.2ZM75.8306 27L79.1506 8L86.9506 7L83.4306 27H75.8306ZM79.4706 4.32C79.4706 2.77333 79.8706 1.66667 80.6706 0.999999C81.4973 0.333333 82.684 -4.76837e-07 84.2306 -4.76837e-07C85.7773 -4.76837e-07 86.8173 0.173332 87.3506 0.519998C87.9106 0.839998 88.1906 1.38667 88.1906 2.16C88.1906 3.73333 87.8306 4.84 87.1106 5.48C86.4173 6.09333 85.244 6.4 83.5906 6.4C81.964 6.4 80.8706 6.25333 80.3106 5.96C79.7506 5.64 79.4706 5.09333 79.4706 4.32ZM109.983 8L106.663 27H102.863L101.063 24.72C100.209 25.6533 99.3428 26.3733 98.4628 26.88C97.6095 27.36 96.5028 27.6 95.1428 27.6C92.7428 27.6 91.0228 26.9333 89.9828 25.6C88.9695 24.2667 88.4628 22.5333 88.4628 20.4C88.4628 16.5867 89.4761 13.3067 91.5028 10.56C93.5561 7.78667 96.3961 6.4 100.023 6.4C103.089 6.4 106.409 6.93333 109.983 8ZM97.5428 13.92L96.1828 21.76H97.3428C97.9295 21.76 98.3828 21.7467 98.7028 21.72C99.0228 21.6667 99.3295 21.5333 99.6228 21.32C99.9428 21.08 100.143 20.7467 100.223 20.32L101.663 12.24H100.463C99.5561 12.24 98.8761 12.3467 98.4228 12.56C97.9695 12.7467 97.6761 13.2 97.5428 13.92ZM118.939 7L120.499 9C123.113 7.26667 125.793 6.4 128.539 6.4C130.113 6.4 131.326 6.72 132.179 7.36C133.059 8 133.499 8.90667 133.499 10.08C133.499 10.2667 133.473 10.5733 133.419 11L130.619 27H123.019L125.459 13H124.299C123.446 13 122.779 13.1067 122.299 13.32C121.819 13.5067 121.526 13.9067 121.419 14.52L119.219 27H111.619L115.139 7H118.939Z" fill="#A02F58" fill-opacity="0.9"/>
</svg>
